/* XPM */
static char *Burger_68x68[] = {
/* columns rows colors chars-per-pixel */
"68 68 240 2 ",
"   c #3E080E",
".  c #440C0F",
"X  c #490E0F",
"o  c #4D110F",
"O  c #51130E",
"+  c #5B1A0E",
"@  c #57170E",
"#  c #4C0F10",
"$  c #4E1110",
"%  c #531210",
"&  c #5C1611",
"*  c #5B1C12",
"=  c #641B0F",
"-  c #631912",
";  c #6C1C13",
":  c #611712",
">  c #721F13",
",  c #5F2116",
"<  c #69240A",
"1  c #7B2C0E",
"2  c #73290C",
"3  c #7E3402",
"4  c #7C390E",
"5  c #692614",
"6  c #752113",
"7  c #7C2314",
"8  c #792A15",
"9  c #7B3C10",
"0  c #793517",
"q  c #7A3A22",
"w  c #3D5F11",
"e  c #336B12",
"r  c #3B6512",
"t  c #387717",
"y  c #2E6C12",
"u  c #5B4C11",
"i  c #4A5A11",
"p  c #595512",
"a  c #694712",
"s  c #7C4211",
"d  c #7F4914",
"f  c #744813",
"g  c #635915",
"h  c #775316",
"j  c #6F490E",
"k  c #456815",
"l  c #49791B",
"z  c #5B791D",
"x  c #5C681A",
"c  c #636319",
"v  c #727822",
"b  c #823602",
"n  c #863803",
"m  c #8B3B04",
"M  c #833D0E",
"N  c #8B3C0B",
"B  c #89340D",
"V  c #923E05",
"C  c #943C0C",
"Z  c #832614",
"A  c #832A15",
"S  c #8C2B15",
"D  c #882B16",
"F  c #942C16",
"G  c #952F17",
"H  c #863715",
"J  c #993617",
"K  c #A73516",
"L  c #B73A16",
"P  c #C53D14",
"I  c #8B410E",
"U  c #87430E",
"Y  c #964004",
"T  c #9B4205",
"R  c #94430C",
"E  c #9B440B",
"W  c #9C490D",
"Q  c #854918",
"!  c #994716",
"~  c #84541C",
"^  c #975116",
"/  c #A24606",
"(  c #AC4A07",
")  c #A24509",
"_  c #A5490A",
"`  c #AB4B0B",
"'  c #A74809",
"]  c #B34D0B",
"[  c #B34D07",
"{  c #B5510B",
"}  c #BC530B",
"|  c #A74918",
" . c #AA5618",
".. c #B35C19",
"X. c #BA5816",
"o. c #BB4716",
"O. c #BB6219",
"+. c #B66019",
"@. c #AD6A1D",
"#. c #855824",
"$. c #965828",
"%. c #8D4424",
"&. c #A25929",
"*. c #B05527",
"=. c #847726",
"-. c #906D2B",
";. c #B86529",
":. c #B36C2F",
">. c #8A6119",
",. c #C4560B",
"<. c #C8570A",
"1. c #C6580C",
"2. c #CA5A0D",
"3. c #C35207",
"4. c #D15E0F",
"5. c #CB4519",
"6. c #CC4C19",
"7. c #CB4317",
"8. c #D34619",
"9. c #D34B19",
"0. c #DB4A18",
"q. c #CD5E11",
"w. c #C65919",
"e. c #D15F11",
"r. c #D75819",
"t. c #E45319",
"y. c #EA5419",
"u. c #E45A1A",
"i. c #ED591A",
"p. c #F15719",
"a. c #E24E18",
"s. c #CC6215",
"d. c #C1651A",
"f. c #CE6619",
"g. c #CD6A1B",
"h. c #C36818",
"j. c #D46213",
"k. c #D96616",
"l. c #D16B1D",
"z. c #DD6919",
"x. c #DA6618",
"c. c #CB7119",
"v. c #D2761A",
"b. c #D97B1A",
"n. c #E36D1C",
"m. c #E76619",
"M. c #E7711E",
"N. c #E9721D",
"B. c #CC5C22",
"V. c #D26E22",
"C. c #D37425",
"Z. c #D67A2C",
"A. c #D97729",
"S. c #C77935",
"D. c #D67F32",
"F. c #C5722B",
"G. c #E46723",
"H. c #EC7422",
"J. c #E47224",
"K. c #F17825",
"L. c #E35F20",
"P. c #C87F40",
"I. c #3F801B",
"U. c #42821C",
"Y. c #51851F",
"T. c #589625",
"R. c #538A21",
"E. c #659B28",
"W. c #728424",
"Q. c #6BA72C",
"!. c #73AA2E",
"~. c #79AD31",
"^. c #7DB334",
"/. c #61A332",
"(. c #5DA131",
"). c #86882B",
"_. c #86942E",
"`. c #93893A",
"'. c #909632",
"]. c #B5892D",
"[. c #88A933",
"{. c #84B534",
"}. c #89BA36",
"|. c #8AB938",
" X c #8FAD36",
".X c #E4841B",
"XX c #EC8A1B",
"oX c #E9851C",
"OX c #F08E1D",
"+X c #F1901E",
"@X c #DA8333",
"#X c #DD8B3C",
"$X c #D78534",
"%X c #D28D35",
"&X c #E78A26",
"*X c #F29324",
"=X c #F6982B",
"-X c #EC9638",
";X c #F69C35",
":X c #E88A30",
">X c #FBA33C",
",X c #FDA136",
"<X c #FEA02F",
"1X c #DF801A",
"2X c #89C139",
"3X c #91C23E",
"4X c #B19645",
"5X c #99B946",
"6X c #94B34A",
"7X c #B3AF4F",
"8X c #978C40",
"9X c #D29043",
"0X c #E29444",
"qX c #E39A4A",
"wX c #E99A46",
"eX c #F09943",
"rX c #FBA643",
"tX c #F3A148",
"yX c #FDAB4C",
"uX c #FCA847",
"iX c #E8A756",
"pX c #FEAE52",
"aX c #FCB255",
"sX c #EEA24E",
"dX c #EDB362",
"fX c #F2B967",
"gX c #CBAD4D",
"hX c #98C648",
"jX c #96CB50",
"kX c #A8C759",
"lX c #BCC55B",
"zX c #A7D65C",
"xX c #A4C84D",
"cX c #ADDA63",
"vX c #B5DC68",
"bX c #B4CC61",
"nX c #B1E369",
"mX c #F6C976",
"MX c #FCD783",
"NX c #E2CA76",
/* pixels */
"NXNXNXNXNXNXNXNXNXNXNXNXNXNXNXNXNXNXNXK.H.j.2.<.2.,.s.#XmXiXl.j.N.N.j.1.<.e.n.H.x.2.,.2.z.H.n.2.@XfXMXNXNXNXNXNXNXNXNXNXNXNXNXNXNXNXNXNX",
"NXNXNXNXNXNXNXNXNXNXNXNXNXNXNXNXNXNXNXH.H.x.q.2.2.<.s.#XdXqXf.j.n.n.k.2.2.q.z.H.z.l.s.2.k.M.m.e.Z.iXmXNXNXNXNXNXNXNXNXNXNXNXNXNXNXNXNXNX",
"NXNXNXNXNXNXNXNXNXNXNXNXNXNXNXNXM.j.j.j.x.z.z.j.2.<.2.C.#XZ.s.2.k.k.n.z.j.2.j.z.@X0XZ.q.4.k.4.2.g.#X#X:XN.k.NXNXNXNXNXNXNXNXNXNXNXNXNXNX",
"NXNXNXNXNXNXNXNXNXNXNXNXNXNXNXH.M.j.1.2.j.z.M.x.2.<.2.s.f.s.2.2.q.j.n.n.j.2.2.f.qXdX0Xs.2.2.q.2.q.s.x.H.J.j.2.NXNXNXNXNXNXNXNXNXNXNXNXNX",
"NXNXNXNXNXNXNXNXNXNXNXNXNXNXk.n.z.2.2.<.2.k.n.j.2.2.2.1.<.,.2.f.A.@XJ.z.j.2.,.s.#XiXD.s.l.$XC.s.,.,.2.z.n.e.<.<.NXNXNXNXNXNXNXNXNXNXNXNX",
"NXNXNXNXNXNXNXNXNXNXNXmXiXV.2.2.j.2.2.1.2.s.j.2.2.2.2.2.2.,.2.Z.iXiXA.q.2.1.<.2.g.C.s.q.$XiX0Xf.<.,.2.e.e.2.<.1.q.NXNXNXNXNXNXNXNXNXNXNX",
"NXNXNXNXNXNXNXNXNXNXdXdX0Xf.<.2.2.j.q.2.2.2.2.1.2.2.2.2.2.2.2.Z.iXiXC.2.<.2.2.2.2.e.2.q.#XiXqXl.<.2.q.2.q.g.V.s.q.g.NXNXNXNXNXNXNXNXNXNX",
"NXNXNXNXNXNXNXNXNXK.:X#XZ.s.<.2.2.z.z.j.2.2.<.<.1.2.2.j.n.k.2.l.@X@Xf.1.1.2.1.2.j.m.e.2.C.#XZ.s.4.m.k.4.f.#X0XA.s.$XaXNXNXNXNXNXNXNXNXNX",
"NXNXNXNXNXNXNXNXK.H.z.f.q.2.1.2.j.n.M.j.2.2.2.2.2.2.2.x.M.z.j.2.2.2.2.2.2.2.2.q.z.M.x.2.2.s.2.2.j.M.n.j.C.iXdX@Xf.#XiXNXNXNXNXNXNXNXNXNX",
"NXNXNXNXNXNXNXNXx.n.m.k.j.2.<.<.2.z.z.j.2.<.2.2.2.2.2.j.z.n.x.j.2.<.<.q.j.k.j.2.j.n.j.2.<.,.,.2.j.z.k.2.f.#X0XC.q.A.-X@XNXNXNXNXNXNXNXNX",
"NXNXNXNXNXNXNX2.q.e.x.n.z.q.1.2.2.2.s.2.1.2.1.2.2.1.2.2.j.x.M.z.2.<.2.s.n.n.j.2.2.e.2.2.2.1.2.2.2.2.q.2.s.f.g.f.2.s.g.s.s.NXNXNXNXNXNXNX",
"NXNXNXNXNXNX2.2.1.2.k.n.z.2.s.C.C.s.<.2.2.2.2.s.s.q.2.1.2.j.n.z.e.2.2.q.n.n.j.2.2.2.l.C.l.2.<.2.2.j.j.2.1.<.<.1.2.2.2.2.<.} NXNXNXNXNXNX",
"NXNXNXNXNXNX<.<.<.2.e.j.4.2.C.qXqXC.,.2.2.2.2.x.n.j.2.2.2.s.j.j.2.2.2.2.j.j.2.2.<.q.$XsX#Xs.,.2.j.z.z.j.1.<.<.<.<.<.2.2.2. .U NXNXNXNXNX",
"NXNXNXNXNXNXf.s.s.2.2.2.2.2.@XiXiXC.<.<.2.2.q.z.M.z.2.2.2.2.2.2.2.2.2.2.s.s.s.1.,.s.0XdX0Xf.,.2.j.M.n.j.2.2.2.s.f.2.2.2.1.` U 9 NXNXNXNX",
"NXNXNXNXNXf.$X0XA.q.4.k.j.2.C.#X#Xg.2.<.2.<.2.x.z.j.2.2.<.<.1.1.2.<.<.s.$X#XC.2.<.q.Z.0X$Xs.,.2.j.z.j.q.<.<.s.@X#XC.2.2.2.{ E N M NXNXNX",
"NXNXNXNX3.f.qXdX#Xs.k.n.n.q.s.f.f.q.2.2.2.2.2.2.2.2.2.2.2.2.2.2.2.2.<.C.iXiX@X2.<.2.f.f.s.1.2.1.2.2.q.2.2.<.f.qXdX#Xs.1.,.} ( R M 9 NXNX",
"NXNXNXNX3.s.#XiX#Xq.e.n.x.q.2.e.e.2.2.1.2.j.j.2.2.<.2.f.Z.C.s.<.2.2.4.A.wXiXZ.2.,.2.2.,.2.j.j.2.2.j.s.2.2.<.f.0XiX@Xq.} { ] ` W M 9 NXNX",
"NXNXNXNX[ } h.Z.v.2.q.j.j.2.e.n.n.e.2.1.q.x.n.k.2.,.s.$XiX0Xf.<.2.4.n.J.A.Z.l.2.2.2.<.2.k.n.z.2.j.n.n.4.1.<.s.C.Z.l.q.` R W ( E M 9 NXNX",
"NXNXNXNX' ` { 1.2.2.2.2.2.2.j.n.n.e.2.2.q.z.n.k.2.<.2.#XdXqXg.<.<.j.n.n.j.2.2.2.2.2.2.2.k.M.n.q.j.n.n.j.2.2.1.1.<.1.} W U R _ R M 9 NXNX",
"NXNXNXNXC E ' { ,.1.2.1.1.2.e.k.k.q.2.<.2.k.x.j.2.1.2.C.#XZ.f.<.2.2.k.k.2.2.k.z.j.2.1.2.j.k.j.2.e.k.k.2.2.2.1.3.[ ` W W R R R U M 9 NXNX",
"NXNXNXNX9 U R ( } 1.2.2.2.1.2.2.2.2.2.1.2.2.q.2.2.2.2.s.s.s.2.2.2.2.2.2.2.s.n.n.k.2.2.2.2.2.q.2.2.2.2.2.2.2.1.} ( R U R _ R M 4 9 9 NXNX",
"NXNXNXNXu a s E ] } 1.2.1.,.1.2.2.2.1.,.,.1.2.2.2.2.2.1.<.<.2.2.2.2.2.2.1.q.k.n.k.2.2.2.2.2.2.2.2.2.2.q.2.1.} [ ' E R R E R 4 f a u NXNX",
"NXNXNXNXw i j U ) { ,.1.,.[ } ,.2.2.<.{ { } 2.2.2.2.2.1.1.2.2.2.1.2.2.2.2.2.q.j.j.2.2.2.q.2.2.2.2.2.2.q.1.} ] [ ( ( ) R N M 4 a i k NXNX",
"NXNXNXNXU.l x j I _ ` } ] ` ` { } 1.3.} { } ,.1.,.1.2.2.,.1.2.2.2.2.2.2.2.1.<.1.} } } ,.} } ,.1.1.} } } } ` _ / _ _ / I f a j p r y NXNX",
"NXNXNXzX~.E.z x h I E E R R C ! ` { } } } } } } } ,.2.,.} } 2.2.2.2.2.2.2.2.,.{ _ W ` { ( W ` 1.,.| W ) E R N Y R R I j p i i i e y y e ",
"NXNXvXzXhX^.T.R.c f M 9 U s s s U W { ,.,.[ ` ( ( } ,.} [ { ,.<.2.1.2.1.1.,.{ _ R U W _ W U ! X.{ I 9 9 s s s 9 s 4 f u r e r e e y e e ",
"NXcXzXjXhX}.!.E.z g g p g g c p g I E ' ` ` ( ( ( [ } ` W _ } } } ,.} } { ` W E R I / _ R M N _ ^ g p u u g g g u u u k t t y y t t t y ",
"vXcXxX|.2X}.{.~.E.Y.l l l Y.l l x d M M R ) ( ( [ [ [ W I R ( [ [ [ [ ( R U M U R _ ( ` E 4 M M h z l r k l l k w w r l U.t e t U.U.NXNX",
"nXcXhX}.{.}.}.}.^./.(.(.T.T.T.T.R.c j h ~ W / ) ) / E R 4 N E / / / _ E M 9 4 9 Y W / _ W h h j c R.R.Y.l I.I.U.l t t t I.t t l l x NXNX",
"NXNXNXNX{.}.}.3XhXjXjXjX2X!.Q.Q.E.z z W.).>.N C N N I n 4 4 n U N M m M 9 4 1 4 M I V N >.).W.z z Q.!.Q.T.l t T.E.R.I.t t t I.k g f A Z ",
"NXNXNXNX|.|. X|.6XkXcXbXjX6X{.^.[.T.T.!.[.=.Q U Q Q d U d Q d Q Q Q Q d d d d d U U s d =.{.!.T.E.~.}.}.!.Y.l E.^./.R.t t t U.c 0 A A 7 ",
"NXNXNXcXzXhX'.=.`.9X4X8X6XkXjXhX{.Q.Q.^.{.'.'.).v =.=.W.=.).`.`.`.`.`.`.=.=.`.`.).=.v =._.{.^.Q.!.}.2X}.^.Q.E.~.{.^.Q.T.E.z c f 8 7 Z A ",
"NXNXnXnXnXkX-.%.| B.*.%.-.5XzXhX}.{.{.{.5XkXkX5X[.[.[.[.[.6XkXbXkXkXbXxX6X X5XkX3X X[.[.{.}.{.{.{.{.|.|.{.{.~.{.}.{.{.^.~.=.d 8 Z Z NXNX",
"NXNXvXnXnXbX:.J L P P K :.gX7X'._.|.hXhXhX6X6X8X_._._._._. X7XbXvXnXcXxX[.'.kXvXxX2X2X}.[._.)._._.)._.{. X_._. X}.}.}.[.).~ H D H J NXNX",
"NXNXNXNXNXNX*.o.P y.a.8.B.A.;.>.=.6XcXcXkX`.$.#.#.d h h Q $.:.9XbXcXzX Xv -.6XcXxX2X}.{.).~ ~ ~ ~ ~ =.[.[.=.#._.2X2X{.).#.H 8 G !  .NXNX",
"NXNXNXNXNXNX6.9.0.y.L.i.p.p.5.K $.7XvXvX7X-.S S D D G S S L 5.S.lXcX3X'.%.%.4XcXxX X X X=.R S S D S %.)._.$.Q =.[.}. X=.0 7 D ! ..O.NXNX",
"NXNXNXNXNXX.X.w.w.r.r.i.p.p.a.P :.lXvXgX9X*.K K K L L L L 7.0.D.bXcX].@.K *.7XbX7X%X].].;.o.L K K K | :.@.| K $.=._.[.=.A D !  ...O.O.O.",
"NXNXNXNXO.O.X.O.X.d.r.L.i.i.y.a.D.7XlX9XL.0.P 8.6.0.t.u.t.y.y.$XlX7XS.8.5.B.7XbX%XG.u.m.u.t.0.5.7.7.6.6.6.9.L J Q ).[.>.H J  ...+.+.O.+.",
"NXNXNXNXv.c.c.c.c.g.f.r.r.r.r.r.V.gXgXA.y.a.a.a.a.t.i.p.p.p.p.J.9X9XV.0.0.L.9X9XD.p.p.p.p.p.t.0.8.8.8.8.8.8.5.L J -.'.-.! | ..d.O.O.O...",
"NXNX+X&X.X.X.X.X.Xb.v.f.w.d.w.d.O.:.F.r.i.t.t.t.t.i.i.i.i.p.i.G.A.J.L.y.a.L.G.A.G.y.p.i.p.i.t.0.8.8.8.8.8.9.8.P 5...@.@. .....O.+.O.O.O.",
"NXNX+XOXOXXXb.b.&X&X&Xg.O.h.O.h.O.h.f.k.i.m.p.m.u.t.u.u.u.u.u.u.i.i.u.u.u.u.i.i.u.u.u.u.u.u.r.9.6.5.6.6.6.r.r.9.6.w.O.O.O.O.O... . ...O.",
"NXNXNXNXNXNX^ ! F.-X=X1Xb.b.b.b.b.v.b.N.N.N.N.m.e.w.w.w.q.w.w.j.N.M.x.w.w.j.n.N.z.q.w.q.w.q.w.w.X.w.X.w.w.z.z.f.w.X.O.d.O.O.O.^ 0 9 NXNX",
"NXNXNXNXNXNXO 5 $.qX-X&X.XXXXXXXXXXXXXXXXXOXXXv.O.O.d.;.d.O.;.c.oX.Xg.O.O.h.b..Xv.d.O.O.O.O.O.O.X.;.O.O.h.b.1Xc.O.........O...H , o NXNX",
"NXNXNXNXNXNX# & %.:.;.@.c..X*X<X=X*X+X=X;X;X;X:X$X$XZ.D.D.D.Z.:X-X:Xb.c.c.v..XXXb.v.c.c.c.v.v.v.v.v.v.v.b.b.b.c.+.^ I H H H Q 8 o . NXNX",
"NXNXNXNX. # - > 6 5 5 5 ! b.=XrX>X*XOX>XuXuXuXuXtXeXtXeXtXeXtXtXuX>X&XoX.X.XXXXXoX.X.X.X.X.X.X.XoX.X.XoX1Xv.O.O...M , @ * + * @ X . . . ",
"NXNXNXNX. $ : > & .   . 4 h.A.#X#X&X*XrXpXyXuXuXuXyXpXpXyXyXpXpXaXuX;X*XOXOX*X=X*X+X*X=X&Xc.c.c.c.c.c.c.O. .^  .! 5 X . X o % $ X X X X ",
"NXNXNXNX. . % & o .   . 5 J ! %.$.b.=XuXaX>X=X*X;XrXpXrX;X;XpXpXaXpXuX;X*X*X;X>X=X*X<X>XF.Q 4 H H M 4 M 9 8 5 5 5 @ . . . % - : o X X X ",
"NXNXNXNXo o o # o o o o : 7 5 + 0 O.*X-XwX-X*XOX*X;XyXrX*X;XyXpXpXyXyXrX=X*X-XeX:X.X-X-X:., . # $ o % % @ o o $ $ X X $ $ : 6 ; o X . X ",
"NXNXNXNX+ + @ o O + - - - - & & > o.d.;.:.$X;X;X>XuXpXrX;XrXyXpXaXyXrX;X>X-XS.&.$. .&.&.q $   . . & & & & # . & & % # % : - ; & o . X X ",
"NXNXNXNX3 3 + o : 6 7 7 ; O & > Z K J 8 q :.tXpXyXyXpXyXuXpXpXpXpXuX=X=XrXqX&.5 * , 5 , * X . . % > 7 7 ; % $ - > & $ : 6 ; % $ X X NXNX",
"NXNXNXNXE m < $ - Z D > & % & > F F Z ; 5 &.P.P.9XsXpXyXuXyXpXsX9XS.V.C.$X:.q % . . .   . % & : - ; > Z 7 - & ; ; : & - ; & . $ @ + NXNX",
"NXNXNXNX} ` 2 $ ; F Z : X X : S F F Z Z D q q q q :.yXrX;XeXpX9X$.H | | %.q 6 - % .   . & ; Z Z 7 : : 7 Z 7 ; : & ; ; ; % $ X @ < 2 NXNX",
"NXNXNXNX4.} B : > D > % . . : Z F Z Z F F ; % X - &.qXeXJ.:XeXS.q ; S F ; & > Z = % X O - 7 D F Z & & ; 7 7 > & O ; 6 = & o o < 3 3 NXNX",
"NXNXNXNX2.,.` B 1 ; & . . . % ; > Z Z F S > : - 7 %.;.;...w.F.*.Z > F F > - Z S 7 ; > > ; ; > S D > - : : : : : : : : 6 4 2 < < 3 n NXNX",
"NXNXNXNX2.2.2.} B & # # o o X X & > Z Z Z > Z Z G F D D D J K K F F F F Z Z F F Z Z S F 6 % & 7 Z 7 > & $ $ @ ; 7 : % 1 T Y b 3 b b NXNX",
"NXNXNXNXk.j.j.1.C 1 2 2 2 2 = X # & ; ; > Z F G G Z ; - ; > S S Z Z Z Z > > 7 Z Z Z Z Z - $ % - ; ; : # $ - 8 B S 1 2 n T T Y m b b NXNX",
"NXNXNXNXH.n.j.2.} ` ` ` ] ` B & . # % % & Z G F Z ; & # $ ; 7 7 - : & & % % & : > 7 > & % # # % % % # . & B ` ( ) T V V V V / T n 3 NXNX",
"NXNXNXNXK.H.z.j.2.q.2.e.e.2.` 6 * & & * = 7 D Z > & # . # & ; ; % . . . X . . X : > : # . . . . % + & @ 2 ) ,.} ( ' / V n V / T m 3 NXNX",
"NXNXNXNXNXNXM.z.r.2.k.n.x.q.} E N C C C B 1 - & & # .   . # % % . .   . . . . . $ & $ . . . . . + B C B C ' } [ [ / Y n b m V V NXNXNXNX",
"NXNXNXNXNXNXK.H.z.e.k.N.n.e.1.,.,.,.1.2.] 1 & % % % O O o # % O $ % X % o O o o O O % % o O # o 6 _ 3.( ' ` ( [ / Y n b b b b b NXNXNXNX",
"NXNXNXNXNXNXK.H.n.x.z.z.n.x.j.4.4.k.n.m.j.C 4 A H D 1 1 A 1 1 1 1 1 1 1 1 1 1 1 1 1 2 2 2 1 2 2 N } 2.} [ [ ( / T V V m b b 3 NXNXNXNXNX",
"NXNXNXNXNXNXK.K.H.H.z.j.k.n.z.j.4.n.N.N.n.w.] 1.f.w.] ] ] ] ] ] ] ] ] ] ] ] ] ] ] ] ` C ) ] ` T ' ,.1.[ ( ( / V m T / V b b NXNXNXNXNXNX",
"NXNXNXNXNXNXNXK.K.K.n.j.x.n.n.k.k.n.H.K.H.n.k.n.N.n.j.j.4.2.2.4.e.2.2.4.4.2.q.q.2.,.} [ } 1.,.} } ,.} [ ( / / m n V / V n NXNXNXNXNXNXNX",
"NXNXNXNXNXNXNXNXNXNXN.n.z.k.k.n.n.k.n.H.K.H.M.n.z.n.M.z.4.2.4.2.4.4.2.4.4.2.4.2.,.} [ [ { { } ,.} } { ] ( T m n b m V m NXNXNXNXNXNXNXNX",
"NXNXNXNXNXNXNXNXNXNXNXH.n.e.j.z.z.q.q.x.M.J.n.j.1.f.n.x.1.,.,.,.,.,.,.,.,.} } ,.{ ( ( ( ( ( [ } } ( ( ( W m b b b b b NXNXNXNXNXNXNXNXNX",
"NXNXNXNXNXNXNXNXNXNXNXNXn.q.,.X...( ` { X...X.( _ { X.{ _ _ _ _ _ _ _ _ _ ( ( _ T Y Y Y Y Y T ( _ T Y T Y n 3 3 b b NXNXNXNXNXNXNXNXNXNX",
"NXNXNXNXNXNXNXNXNXNXNXNXNXNXNXC m m n I m Y Y m m m I m m m m m m m m n m m n m m n n n n n n m n n n n n b b NXNXNXNXNXNXNXNXNXNXNXNXNX",
"NXNXNXNXNXNXNXNXNXNXNXNXNXNXNX3 3 3 3 3 3 3 3 3 3 3 3 3 3 3 3 3 3 3 3 3 3 3 3 3 3 3 3 3 b 3 3 3 3 3 b 3 3 b b NXNXNXNXNXNXNXNXNXNXNXNXNX"
};
