/* XPM */
static char *gborder[] = {
/* columns rows colors chars-per-pixel */
"68 68 31 1 ",
"  c #753B37",
". c #7B4038",
"X c #814539",
"o c #814639",
"O c #874A3A",
"+ c #8A4E3B",
"@ c #8D4F3B",
"# c #8D503B",
"$ c #8D513C",
"% c #91533C",
"& c #93553C",
"* c #96583D",
"= c #985B3E",
"- c #995B3E",
"; c #9A5B3E",
": c #9B5E3E",
"> c #9E603F",
", c #A1633F",
"< c #A46441",
"1 c #A46640",
"2 c #A66641",
"3 c #A76741",
"4 c #A86742",
"5 c #A66841",
"6 c #AC6C42",
"7 c #AF6F43",
"8 c #B27144",
"9 c #B37244",
"0 c #B57245",
"q c #BB7846",
"w c #C27E48",
/* pixels */
"11111111111111111111111111111111111111111111111111111111111111111111",
"11111111111111111111111111111111111111111111111111111111111111111111",
"11111111111111111111111111111111111111111111111111111111111111111111",
"11111111111111111111111111111111111111111111111111111111111111111111",
"11111111111111111111111111111111111111111111111111111111111111111111",
"11111111111111111111111111111111111111111111111111111111111111111111",
"11111111111111111111111111111111111111111111111111111111111111111111",
"11111111111111111111111111111111111111111111111111111111111111111111",
"11111111111111111111111111111111111111111111111155,98800999611111111",
"111111111111111111111111111111111111111111111111,,5wwwwwwww911111111",
"1111111111111111111111111111111111111111111111115,5wwwwwwww911111111",
"111111111111111111111111111111111111111111111111,5,wwwwwwww911111111",
"111111111111111111111111111111111111111111111156766000000001===:1111",
"11111111111111111111111111111111111111111111116wwww$@@@@@@@o   o1111",
"11111111111111111111111111111111111111111111116wwww$@@@@@@@o   o1111",
"11111111111111111111111111111111111111111111116wwww$@@@@@@@o   o1111",
"11111111111111111111111111111111555,,5556,,,,,,qwww@@@@@@@@X   X1111",
"11111111111111111111111111111111,,5555,,,,66,,=.   @@@@@@@@X   X1111",
"1111111111111111111111111111111151,55,,5,6,,,6=.   @@@@@@@@X   X1111",
"11111111111111111111111111111111115,5555,,,6,,*.   @@@@@@@@X   o1111",
"11111111111111111111111111111111111155,,6,6,,,,.   @@@@@$$$.   X1111",
"111111111111111111111111111111111111,555,,5,6,,:==:X.......#:==:1111",
"111111111111111111111111111111111111,55,,55,6,,,,,,        $,6,,1111",
"1111111111111111111111111111111111115,5555,5,,6,,,6       .&,,,,1111",
"1111111111111111111111111111111111111111,7,7,,,6,,>.....   $,,,,1111",
"1111111111111111111111111111111111111111,,,,7,,6,,,>O++>$$$>,,,,1111",
"11111111111111111111111111111111111111117,7,,,7,,,,,>>q,,,,,,,9,1111",
"1111111111111111111111111111111111111111,,,,,,,,,,,,,,,,,,,8,,,,1111",
"1111111111111111111111111111111111111111,,,,,,,,,,,,q,,,,,,,0,,,1111",
"1111111111111111111111111111111111111111,,9,,,9,9,,9,,,,q,,,,,,,1111",
"1111111111111111111111111111111111111111,99,9,,,,,,,,,,,,,,q,,,,1111",
"1111111111111111111111111111111111111111,,,,,,9,,9,,,,q,,,,,,,,q1111",
"11111111111111111111111111111111111111111111111111111111111111111111",
"11111111111111111111111111111111111111111111111111111111111111111111",
"11111111111111111111111111111111111111111111111111111111111111111111",
"11111111111111111111111111111111111111111111111111111111111111111111",
"11111111111111111111111111111111111111111111111111111111111111111111",
"11111111111111111111111111111111111111111111111111111111111111111111",
"11111111111111111111111111111111111111111111111111111111111111111111",
"11111111111111111111111111111111111111111111111111111111111111111111",
"11111111111111111111111151111111111111111111111111111111111111111111",
"11111111111111111111111167111111111111111111111111111111111111111111",
"111111111111111111111111,,,,1111111111111111111111111111111111111111",
"111111111111111111111111,7,,1111111111111111111111111111111111111111",
"111111111111111111111111,7,7,,,,111111111111111111111111111111111111",
"111111111111111111111111,,,,,,9,111111111111111111111111111111111111",
"111111111111,=======:,117,7,,99,111111111111111111111111111111111111",
"111111111111=        :11,,,,,,,,111111111111111111111111111111111111",
"111111111111=        -,,,,,,,,9,111111111111111111111111111111111111",
"111111111111=        -,,,,,,,,,,111111111111111111111111111111111111",
"111111111111=        -,,,,,q,,,,111111111111111111111111111111111111",
"11111111=$$+$$$$@@@@@.  .:,,q,,,111111111111111111111111111111111111",
"11111111-@@@$@@@@@@@@.  .%,,,,,,111111111111111111111111111111111111",
"11111111-@@@$$@@@@@@@.   %,,,,q,111111111111111111111111111111111111",
"11111111-@@@$$@@@@@@@.   @,,,,,,111111111111111111111111111111111111",
"11111111-@@@%>>:>>>,,@OOO*,,q,,,111111111111111111111111111111111111",
"1111557q-@@@&111,,,,,,@@.=111111111111111111111111111111111111111111",
"1111156,-@@@&111,,,,,:@%=:111111111111111111111111111111111111111111",
"111111,,-@@@&111,,,,,*@&$:111111111111111111111111111111111111111111",
"111111,,11551-----:-,,,,,,111111111111111111111111111111111111111111",
"1111,,q,,www,%@@$$$@$qwww9,,1111111111111111111111111111111111111111",
"1111,,,,wwwwq&@@$$@@$9wwwq5,1111111111111111111111111111111111111111",
"1111,,,,,www,@@@$$$$$9www95,1111111111111111111111111111111111111111",
"1111,q,,,wqwq--:===::7qqq9551111111111111111111111111111111111111111",
"1111111111116wwwwwwww61111111111111111111111111111111111111111111111",
"1111111111116wwwwwwww61111111111111111111111111111111111111111111111",
"1111111111116wwwwwwww61111111111111111111111111111111111111111111111",
"1111111111116wwwwwwww61111111111111111111111111111111111111111111111"
};
