/* XPM */
static char *_7fe0fbe107a41abaa1af6ec0bcd50b62G0UlNjeGuLBs70m[] = {
/* columns rows colors chars-per-pixel */
"68 68 189 2 ",
"   c #E2CA76",
".  c #26261D",
"X  c #2E2B22",
"o  c #39372B",
"O  c #3D3A2D",
"+  c #40381A",
"@  c #403E31",
"#  c #48401F",
"$  c #4E4512",
"%  c #4E472B",
"&  c #544B24",
"*  c #524B2B",
"=  c #594F26",
"-  c #5C5229",
";  c #4B4739",
":  c #4C4939",
">  c #4B4734",
",  c #534D32",
"<  c #534F3E",
"1  c #5C5433",
"2  c #5A543A",
"3  c #56513F",
"4  c #60552B",
"5  c #665B2C",
"6  c #6B5F2E",
"7  c #625B3B",
"8  c #645B39",
"9  c #6C602C",
"0  c #716431",
"q  c #5B5644",
"w  c #5F5946",
"e  c #5E5A49",
"r  c #565140",
"t  c #635E42",
"y  c #635F4B",
"u  c #6B6446",
"i  c #6C664C",
"p  c #6D6846",
"a  c #736C4C",
"s  c #7A734D",
"d  c #6B6651",
"f  c #6E6953",
"g  c #726C54",
"h  c #756D59",
"j  c #7C7453",
"k  c #77715A",
"l  c #7E775B",
"z  c #7F795E",
"x  c #7F7A60",
"c  c #80783C",
"v  c #837B54",
"b  c #837C5B",
"n  c #857E65",
"m  c #988816",
"M  c #A79604",
"N  c #AE9B09",
"B  c #A1920E",
"V  c #B39F08",
"C  c #A49413",
"Z  c #AB9A14",
"A  c #A4941C",
"S  c #AF9F1A",
"D  c #B19F12",
"F  c #B09F1B",
"G  c #B9A507",
"H  c #B4A211",
"J  c #BCA711",
"K  c #BDAA16",
"L  c #B4A11A",
"P  c #8C822C",
"I  c #998B26",
"U  c #92852E",
"Y  c #96892A",
"T  c #998B2C",
"R  c #958933",
"E  c #968B3D",
"W  c #95893E",
"Q  c #9D913D",
"!  c #A29325",
"~  c #AB9B25",
"^  c #A99929",
"/  c #A79829",
"(  c #A79939",
")  c #BAA720",
"_  c #C3AD04",
"`  c #CEB704",
"'  c #CEB804",
"]  c #C4B006",
"[  c #D4BC06",
"{  c #D0B70A",
"}  c #C1AD12",
"|  c #CDB412",
" . c #CBB71A",
".. c #D2BA10",
"X. c #C5B128",
"o. c #DCC304",
"O. c #DEC30B",
"+. c #DAC015",
"@. c #E2C607",
"#. c #E6CB04",
"$. c #EACE04",
"%. c #E0C708",
"&. c #E4CB0A",
"*. c #EBCB08",
"=. c #ECD205",
"-. c #E7D107",
";. c #F3D405",
":. c #F6D906",
">. c #FBDA05",
",. c #92884C",
"<. c #8C845B",
"1. c #8B8357",
"2. c #938A5E",
"3. c #978E53",
"4. c #9C9359",
"5. c #9C9254",
"6. c #A69946",
"7. c #A2995E",
"8. c #A09658",
"9. c #B0A24E",
"0. c #AFA458",
"q. c #878064",
"w. c #8A8266",
"e. c #8C8569",
"r. c #8E886C",
"t. c #968D61",
"y. c #988F60",
"u. c #928B6D",
"i. c #91876C",
"p. c #9C9362",
"a. c #989168",
"s. c #958E71",
"d. c #979072",
"f. c #9B9374",
"g. c #9E9877",
"h. c #9F9778",
"j. c #A09764",
"k. c #A39B6B",
"l. c #A29960",
"z. c #A59D74",
"x. c #A39C7B",
"c. c #A89F7E",
"v. c #AAA16B",
"b. c #AAA167",
"n. c #ACA275",
"m. c #AAA27E",
"M. c #B0A77D",
"N. c #B1A874",
"B. c #A89F80",
"V. c #A69E80",
"C. c #A7A180",
"Z. c #ACA483",
"A. c #B0A784",
"S. c #B2A985",
"D. c #B5AD89",
"F. c #B8AF8A",
"G. c #BAB28D",
"H. c #BDB48F",
"J. c #BBB28D",
"K. c #B7B08B",
"L. c #BEB590",
"P. c #BEB691",
"I. c #C0B791",
"U. c #C0B792",
"Y. c #C2B993",
"T. c #C3BA94",
"R. c #C5BC95",
"E. c #C6BD97",
"W. c #C7BE97",
"Q. c #C5BC96",
"!. c #C5BC95",
"~. c #C8BF97",
"^. c #C8BF97",
"/. c #C7BE98",
"(. c #C6BD98",
"). c #C8BF98",
"_. c #C9BF99",
"`. c #CABF9A",
"'. c #C8BF98",
"]. c #C8C098",
"[. c #C9C099",
"{. c #CBC19A",
"}. c #CAC19A",
"|. c #CCC39B",
" X c #CDC39C",
".X c #CFC59D",
"XX c #CBC19A",
"oX c #D0C69E",
"OX c #D1C69E",
/* pixels */
"                                                                                                                                        ",
"                                                                  n f.g.h.u.k             x.E.x.q                                       ",
"                                                                x..XoX.X.X.X XA.x       v a u.E.G.3                                     ",
"                                                                u.E.{.{.{.).). X|.x.w 7 <.2.p f.oXu.                                    ",
"                                                    a 2.p.p.y.v t r.F.E.).{.).).)..XU.s.l b q.F.|.D.                                    ",
"                                                    2.p.p.p.p.p.v 2 i f.P.(.{.).).).{.|.).T.).).{.D.                                    ",
"                                                  u 2.p.y.y.y.p.p.s v a q.H.{.{.).).).).).).).)..Xx.                                    ",
"                                      A.G.d       a p.2.b l j v 2.j v p.a x.E.{.).).).).).).).)..Xk                                     ",
"                                  g F..XF.a t u v y.2.u.A.T.F.f.b i a j g Z.(.).).).).).).).).{.K.                                      ",
"                                y G..XY.u.v v 2.j.2.<.m.{.).{. X).A.x.x.F.E.{.).).).).).).).{.{.k                                       ",
"                                u.oX{.K.b <.v <.y.v u.Y.{.).).).).{.|. X{.{.).).).).).).).{.{.s.                                        ",
"                                x..X{.H.q.a a s j i.H.{.).).{.).).).).).).(.).).).).).).{.{.h.                                          ",
"                                i..X{.).H.u.w.r.Z.E.{.).).E.~.{.).).).).P.E.).).{.~.).{.E.u.                                            ",
"                                d T.).{.{.oXoX.X|.{.{.{.).Y.T.E.{.).).T.A.T.{.E.!.{.{.G.                                                ",
"                                    Z.P.Y.E.E.E.(.).).{.E.F.A.U.{.).{.K.A.E.{.x.c.Y.x.                                                  ",
"                                                    x.H.(.U.Z.A.E.{.{.A.F.E.A.f.A.q.                                                    ",
"                                                        A.E.F.Z.U.{.{.Z.G.H.c.A.                                                        ",
"                                                          F.T.A.G.{.{.m.G.Z.Z.z                                                         ",
"                                                          u.!.A.F.{.).x.A.m.w.                                                          ",
"                                                            G.F.A.~.E.x.x.Z.                                                            ",
"                                                            A.F.Z.{.U.f.f.f.8 #                                                         ",
"                                                        + 7 e.d.u.A.x.l j 7 0 0                                                         ",
"                                                        - 5 * * , 7 , * - & 6 0                                                         ",
"                                                          - 4 5 5 9 & 6 0 & 5 &                                                         ",
"                                                        : 1 4 4 6 - = 6 - * 7                                                           ",
"                                                        h.f.i 7 1 % 8 8 2 z D.V.                                                        ",
"                                                      q.U. XT.x.e.s.f.Z.x.L..XK.                                                        ",
"                                                      x.{.).{.G.F.|..X.XA.A.E.{.r.                                                      ",
"                                                    z P.{.).{.A.Z.E.).{.F.Z.T.|.A.                                                      ",
"                                                    x.{.).).).A.Z.E.).).P.x.H.E.|.r.                                                    ",
"                                                  r.E.{.).).E.Z.A.{.).).{.x.x.Z.E.~.n                                                   ",
"                                                  K.{.).).E.H.Z.F.{.).).{.F.f.f.Y.|.H.d                                                 ",
"                                                x.{.).).{.P.Z.x.G.{.).).).(.m.x.Y.{.|.A.                                                ",
"                                              u.E.{.).).).K.x.Z.Y.{.).).).).!.Y.E.{.).{.x.                                              ",
"                                            n P.{.).).).E.A.x.F.).).).).).).).{.{.).).).{.d.                                            ",
"                                          x G.{.).).).).).G.D.Y.{.).).).{.{.).).).).).).).{.s.                                          ",
"                                        e G.{.).).).).).).E.E.).).).(.T.!.E.{.).).).).).).).{.s.                                        ",
"                                        B.{.).).).).).).).).{.).).!.N.0.b.Y.{.).).).).).).).).{.d.                                      ",
"                                      x.|.~.).{.H.G.E.).).).).).{.P.6.| / M.T.{.{.{.).).).).).{.{.r.                                    ",
"                                    r.{.!.Y.).{.G.F.E.{.).).).).Y.f.T -.H E 4.z.P.).{.).).).).).{.).h                                   ",
"                                  k E.E.G.Y.).).T.U.E.).).).{.F.7.^ B &._ V J ~ 5.K.(.{.).).).).).|.G.:                                 ",
"                                r G.{.Y.F.E.).{.E.E.E.{.).{.G.4.S o.M @.[ N o.$.D 4.P.{.).).).).).). Xd.                                ",
"                                d..XE.H.G.).).).{.).).).).{.z.^ #.K P ..o.P A &.=.Y S.).).).).).).).{.).q                               ",
"                              e !.{.!.A.D.).).).).).).).).(.l.K =.R t. .#.6.<.F ` U S.(.).).).).).).)..Xf.                              ",
"                              s. XE.U.Z.A.).).).).).).).).(.7.} ;.! 1.) $.( A.7.Q p.U.{.).).).).).).).{.E.;                             ",
"                            : Y.{.).P.A.F.{.).).).).).).).{.z./ $.$.J { ;.L ,.u.Z.(.{.{.).).).).).).).)..Xr.                            ",
"                            d |.{.{.!.D.H.).).).).).).).).{.P.4.Z ;.:.:.>.*.| L R a.U.{.).).).).).).).).{.F.                            ",
"                            r..X).{.!.A.Y.).).).).).).).).).).H.j.Y Z ` ;.>.>.;.%.A p.Y.{.).).).).).).).).{.:                           ",
"                            x. X).{.E.P.E.).).).).).).).).).{.|.Q.S.z.Q &.@.N [ >.#.T S.(.).).).).).).).)..Xf                           ",
"                            F.{.E.E.E.E.).).).).).).).).).).!.z.<.D.(.k.+.o.E U O.>.Z n.(.{.).).).).).).)..Xw.                          ",
"                            H.{.E.E.).).).).).).).).).).).{.m.( H ,.U.n. .#.9.1.| >.H v.E.{.).).).).).).)..Xf.                          ",
"                            U.{.E.E.).).{.).).).).).).).).|.z.~ $.C k.Z.X.$.( c ..>.A n.(.{.).).).).).).)..Xx.                          ",
"                            P.{.E.E.).E.U.Y.{.).).).).).).{.A.Q [ #.! s A =.C D =.o.E F.{.{.).).).).).).). Xx.                          ",
"                            F.{.E.).{.E.Y.Y.Y.T.).).).).).).E.k.! $.$.} N -.G o.' I n.E.{.).).).).).).).)..Xx.                          ",
"                            x.|.).).{.{.!.F.U.E.).).).).).).).Y.k.I G _ M $.] m W n.T.).{.).).).).).).).)..Xf.                          ",
"                            q..X).).{.{.E.P.!.E.).).).).).).).{.T.M.j.3.P &.' 8.S.E.).].).).).).).).).).)..Xn                           ",
"                            w ).).E.T.G.).).E.E.).).).).).).).).{.(.T.U.p.K Z b.!.{.{.).).).).).).).).).)..Xy                           ",
"                            & Z.|.E.Y.F.{.{.E.T.E.).).).).).).).).).{.{.K.v.N.H.E.{.).).).).).).).).).).).P.o                           ",
"                            $ k  XE.E.E.).{.E.E.).).).).).).).).).).).).(.!.E.(.{.).).).).).).).).).).)..Xu.                            ",
"                              > F.|.E.(.~.E.E.).).).).).).).).).).).).).).{.{.{.).).).).).).).).).).).{.Y.;                             ",
"                                d {.(.E.!.E.).Y.Y.(.{.{.).).).).).).).).).).).).).).).).).).).).).).)..Xg                               ",
"                                X u..XE.E.~.).!.F.Z.F.P.E.).).).).).).).).).).).).).).).).).).).).).oXw.                                ",
"                                  O x.oXE.).{.).E.P.A.x.x.Z.H.).).).).).).{.).).).).).).).).).).|..Xw..                                 ",
"                                    O h.|.{.).{.{.~.).T.Z.x.A.Y.).).{.|.H.!.).).).).).).).).{..XH.d                                     ",
"                                      X g !. X{.).{.{.{.E.!.E.).|..XF.w.q.K.~.).).).).). X.XU.q.O                                       ",
"                                          < d.Y..X.X X|.|..X.X|.A.g f f.P.{.|..X.X.X XY.x.f o                                           ",
"                                              @ f u.C.A.Z.x.e.q O f x.F.F.A.Z.x.r.k q O                                                 ",
"                                                                                                                                        "
};
