/* XPM */
static char *_ec602821c884b6f84c269fa7cbcf249lqOyz1kucdYfnWP2[] = {
/* columns rows colors chars-per-pixel */
"68 68 214 2 ",
"   c #E2CA76",
".  c #010101",
"X  c #080607",
"o  c #121010",
"O  c #38120C",
"+  c #111A24",
"@  c #1C222A",
"#  c #393437",
"$  c #2B2E33",
"%  c #781B0C",
"&  c #631A0F",
"*  c #782417",
"=  c #672319",
"-  c #592623",
";  c #5A342A",
":  c #463333",
">  c #533435",
",  c #6E352B",
"<  c #4D1C14",
"1  c #6A443D",
"2  c #55403E",
"3  c #2D3749",
"4  c #533F4C",
"5  c #3C445A",
"6  c #2B464E",
"7  c #3A5168",
"8  c #47474A",
"9  c #4E4E51",
"0  c #704F4C",
"q  c #696859",
"w  c #474C68",
"e  c #485567",
"r  c #555865",
"t  c #4A5974",
"y  c #535D78",
"u  c #57646B",
"i  c #57657B",
"p  c #496A75",
"a  c #66676C",
"s  c #666974",
"d  c #75787A",
"f  c #766A6F",
"g  c #735B7A",
"h  c #872617",
"j  c #962815",
"k  c #93210D",
"l  c #B72C15",
"z  c #B4301C",
"x  c #BA321D",
"c  c #A62D19",
"v  c #833526",
"b  c #953C2C",
"n  c #AA3926",
"m  c #B83824",
"M  c #C42D15",
"N  c #C4341E",
"B  c #CB341C",
"V  c #D8351A",
"C  c #D22D11",
"Z  c #E93A1D",
"A  c #FA3B1C",
"S  c #CC3922",
"D  c #D53A22",
"F  c #DC3B22",
"G  c #D63B25",
"H  c #E33D23",
"J  c #EC3F25",
"K  c #FA3F22",
"L  c #864939",
"P  c #9A4339",
"I  c #BA4736",
"U  c #A64D3E",
"Y  c #CC432D",
"T  c #C64A37",
"R  c #D54832",
"E  c #E74229",
"W  c #F44126",
"Q  c #FE4326",
"!  c #FF4529",
"~  c #F9462C",
"^  c #FF5339",
"/  c #EF4E36",
"(  c #885C56",
")  c #985A59",
"_  c #915048",
"`  c #B35046",
"'  c #A7645A",
"]  c #B86759",
"[  c #9A6667",
"{  c #927376",
"}  c #B77C73",
"|  c #B2756A",
" . c #926060",
".. c #C35C4B",
"X. c #FD5E46",
"o. c #C26859",
"O. c #FE634B",
"+. c #FF6E59",
"@. c #FD715B",
"#. c #FF7965",
"$. c #898F75",
"%. c #AF847C",
"&. c #98A67A",
"*. c #FF8776",
"=. c #C4837A",
"-. c #575E86",
";. c #5C6E8A",
":. c #5C6797",
">. c #557683",
",. c #697789",
"<. c #7A7D82",
"1. c #697A96",
"2. c #696F9C",
"3. c #6876A7",
"4. c #6C7CB8",
"5. c #626FA2",
"6. c #857585",
"7. c #8E7F96",
"8. c #5C8694",
"9. c #6E8A96",
"0. c #6996A6",
"q. c #769CA9",
"w. c #7281BC",
"e. c #7A93BA",
"r. c #7387B4",
"t. c #79A7B8",
"y. c #6FA1AE",
"u. c #7A8BCC",
"i. c #7687C5",
"p. c #7F8FD2",
"a. c #7F96DA",
"s. c #7CB3C6",
"d. c #89898B",
"f. c #989998",
"g. c #8E9194",
"h. c #BB9E9A",
"j. c #AE918C",
"k. c #A2A695",
"l. c #ACB594",
"z. c #ACB39B",
"x. c #AFB896",
"c. c #B1BD94",
"v. c #B1BA9A",
"b. c #A8B08A",
"n. c #8897B0",
"m. c #89A9B6",
"M. c #8EA8B2",
"N. c #A6A7A7",
"B. c #B5ADAA",
"V. c #ACB3A1",
"C. c #B2B6A7",
"Z. c #B8B9B6",
"A. c #99A685",
"S. c #C59B95",
"D. c #C08A82",
"F. c #FE9586",
"G. c #FF9F92",
"H. c #C6A099",
"J. c #FFA194",
"K. c #C6B5B2",
"L. c #FFB5AC",
"P. c #FFBCB3",
"I. c #FFAEA3",
"U. c #B5C194",
"Y. c #BBC998",
"T. c #B8C48E",
"R. c #C1CF99",
"E. c #C6D69E",
"W. c #CDDDA2",
"Q. c #C7D6A0",
"!. c #FFC3BC",
"~. c #DBEDAE",
"^. c #D5E6A7",
"/. c #DEF0AF",
"(. c #DEEEB0",
"). c #DFF1B0",
"_. c #CFE0A3",
"`. c #E1F3B2",
"'. c #8498C9",
"]. c #8293D5",
"[. c #879AD9",
"{. c #83B8CB",
"}. c #8BA3D8",
"|. c #8EAFD6",
" X c #93ABE3",
".X c #9AB4E5",
"XX c #9CB6E9",
"oX c #9EB9EA",
"OX c #95B4E5",
"+X c #95B4E9",
"@X c #A0BCEE",
"#X c #A3BFF2",
"$X c #8CC6DA",
"%X c #92C1D4",
"&X c #93CEE3",
"*X c #95D4E9",
"=X c #98DCF2",
"-X c #8ECCE1",
";X c #A3C0F3",
":X c #9EE2F6",
">X c #9CE1EE",
",X c #A1E4FD",
"<X c #A5EAFE",
"1X c #A1E4F7",
"2X c #A6F2FF",
"3X c #C7C6C5",
"4X c #D3C9C7",
"5X c #D9D9D8",
"6X c #FFCAC4",
"7X c #FFCEC8",
"8X c #E7E8E9",
"9X c #EDF1F2",
"0X c #FEFEFE",
"qX c #F4F8F8",
/* pixels */
"                                                        B.                j.                                                            ",
"                                                        _   %.        K.  v   j.                                                        ",
"                                                      L  .{ h         _ ( ( ) L                                                         ",
"                                                      [ 1 ;             1 ; L                                                           ",
"                                                      Z.$.T.k.          $.c.A.                                                          ",
"                                                      z.~.).E.        C.W.`.Y.                                                          ",
"                                                      c.~.).^.z.      l./.).W.                                                          ",
"                                                      U.~.~./.l.      Y.).~.W.                                                          ",
"                                                      U.~.~.).c.      E.).~.W.Z.                                                        ",
"                                                      U.~.~.).U.    C.^.~.~.W.Z.                                                        ",
"                                                      U.~.~.).U.    z.^.~.~.W.                                                          ",
"                                                      U.~.~.).c.    z.~.~.~.W.                                                          ",
"                                                      U.~.~./.c.    x.~.~.~.W.                                                          ",
"                                                      c.~.~./.c.    x.~.~.~.W.                                                          ",
"                                                      c.~.~./.l.    x./.~.~.W.                                                          ",
"                                                      x./.`./.l.    x./.~.~.W.                                                          ",
"                                                      v.Y.b./.l.    x./.^.`.R.                                                          ",
"                                                      l.k.d.Y.z.    x.c.$.W.Y.                                                          ",
"                                                      z.q + &.v.    k.$.a c.U.                                                          ",
"                                                      C.9 o Y.v.    A.o . Y.C.                                                          ",
"                                                      Z.R.U./.z.    l.q $.^.C.                                                          ",
"                                                        R.`.~.z.    z.`.`.E.                                                            ",
"                                                        c.~.^.z.    z.^.`.U.                                                            ",
"                                                        z.^.^.z.    V.^.).l.                                                            ",
"                                                          Q.^.V.      _.^.z.                                                            ",
"                                                f.        c.`.V.      _.W.                                                              ",
"                                                  = ( (   C.&.; * * ; W.Y.                                                              ",
"                                                      v v q O N ! ! G R.&.                                                              ",
"                                                        , % * F ! W b A.L 0                                                             ",
"                                                        , H B W ! ! R S F % , P b _                                                     ",
"                                              { n c n v h F ! ! ! ! ! A z U } H.S...n                                                   ",
"                                            h.B ..S.=...I S Z Z Z Z T } 4X9X0X0XqXB.m '                                                 ",
"                                            ' I 5X0X0XqX8X4XK.S.S.K.8X0X0X0X0XqXZ.f.o.U                                                 ",
"                                            ' b f.5X9X0X0X0X0X0X0X0X0X0X0X0X3XZ.5X4XT [                                                 ",
"                                            j.n K.N.N.3X3X9X0XqXqX0X0X5X3X3Xf.8X9X] j N.                                                ",
"                                              _ } 8XqX5Xf.Z.Z.N.f.3XZ.N.B.8X0X9X} l k >                                                 ",
"                                          g.  2 % } 8X0XqX0X0X9X8XqXqX0X0X0X5X] Z H n ,.0.f.                                            ",
"                                        q.>Xp k F B ` h.5XqX0X0X0X0X0X9X4X%.Y Q ! H <.2X<Xm.                                            ",
"                                      q.=X{.e : j Z Q J Y ] D.H.H.j.o.T H A Q B h : -X<X,X{.                                            ",
"                                    f.$X1Xp {.s.>.9 * x Z C C V V V C V V j - u 0.8.<X<X<Xt.N.                                          ",
"                                    u <.8.8.>X,Xs.-Xs.6 0 | ..m % = ; 8 9 7 s.<X$Xt.{.m.&Xt.8                                           ",
"                                    } M : $X,X<X:Xq.s 0 _ } h.9 8.0.$Xs.{.=X<X,X{.0.6.M 9.t.>.<.                                        ",
"                                  3XR * 0.:X<X=Xd.I E +.#.@./ m g.s.t.{.&X,X,X,X:Xs.( F s 0.$X>.                                        ",
"                                  o.l s =X<X&X) Z +.L.7X6X7X6X#.A U M.*X8.y.,X,X,X:X' G m.>X,X$Xu                                       ",
"                                h.D 0 &X<X=X[ A *.!.6X6XP.L.G.X.Q K B m.*X0.=X,X,X*X` R %X<X,X1Xq.8                                     ",
"                                T x q.:X2XM.F @.!.6X!.*.^ ! Q Q Q Q K ` =X,X,X,X,X%XY T &X<X<X,Xs.$ i a                                 ",
"                                ] D Y { m.[ K F.6X!.#.Q Q Q ! Q Q ! ! Z n.2X<X<X<XM.V ] =X{.8.e t 1.e d                                 ",
"                                d o & M F J K @.J.O.K Q Q W N x x J ! K _ y.y.y.q.f Z 0 t i 3.r.i @ . $                                 ",
"                                $ . . X & F ! Q Q Q Q Q Q x F W W z F ! m t ;.;.i , H 4 e w $ o . . . X f                               ",
"                              N.y 3 X . . c W Q Q Q Q Q W N ! Q ! W x D W 0 s e.$ h N X . . . . . . o 5 u                               ",
"                              d }.oXe.e @ j W Q Q Q Q Q W N W Q Q Q Q x H V V B l B h . . . . . o e '.@X1.                              ",
"                              ,..X@X#X#XOX[ W Q Q Q Q W c z W Q Q Q ! H z O O [ P j O . . X @ y '.#X#XXX1.                              ",
"                              ,.oXoXoXoX#Xn.I Q Q Q Q W x J Q Q Q Q Q W N & +  Xe.3 5 y 1.n.OX#X@XoXoXXX,.                              ",
"                              ;.oXoXoXoXoX7.n S ! Q Q J S Q Q Q Q ^ ! Q z f }.XX@X@X;X;X;X#XoXoXoXoX@X Xs                               ",
"                              i .X@XOXr.'.[ W S N J Q S D Q Q Q *.!.O.A ) @XoXoXoXoXoXoXoXoXoXoXoXoX X5.d.                              ",
"                              s i.XX.X1.e.{ W Q H N x N W Q Q #.6XL.^ D n.@XoXoXoXoXoXoXoXoXoXoX.X[.5.r                                 ",
"                              Z.w w. X|.OXg.E Q ! Q W ! ^ +.G.!.!.@.Z 6.oXoXoXoXoXoXoXoXoXXX X}.p.:.r 5X                                ",
"                                B.e :.]. X}.) J Q Q X.G.P.6X7XP.@.V { oX@XoXoXoXoXoXoX.X X[.u.3.t s                                     ",
"                                  5X<.e t :.4._ H K O.L.P.I.F.X.S 6.+XXXXXXXXX.X X X[.].p.u.-.# B.                                      ",
"                                      4X8 t u.u.g h z R / E G ` 2.a.].].].].].].u.5.:.p.p.p.w.r                                         ",
"                                        y ].].].u.7 + $ : 4 -.4.u.i.i.i.4.3.:.t 3 5 :.].].].p.-.                                        ",
"                                      f.w -.3.4.w.w.5   Z.d.s r r r r r a d g.d.5 ].].].p.u.4.w k.                                      ",
"                                        4Xf.# - - # g.                          r w w w w 5 a B.                                        ",
"                                            f Z C                                   q k l 0                                             ",
"                                            f.c M                                     c V {                                             ",
"                                              1 &                                     , j B.                                            ",
"                                              3Xf.                                    q 9                                               ",
"                                                                                                                                        "
};
