/* XPM */
static char *baa61695ce9a4fabd387bfb7ae261a55gR0PeYYIDYZPNGZM[] = {
/* columns rows colors chars-per-pixel */
"68 68 231 2 ",
"   c #E2CA76",
".  c #1E1C1C",
"X  c #261D1E",
"o  c #342C1D",
"O  c #262427",
"+  c #322A26",
"@  c #30323A",
"#  c #363731",
"$  c #251E20",
"%  c #482525",
"&  c #572D2C",
"*  c #732B29",
"=  c #44381F",
"-  c #3E4038",
";  c #584D2E",
":  c #6F5136",
">  c #66572C",
",  c #3A3C48",
"<  c #095B4C",
"1  c #165D51",
"2  c #125C4E",
"3  c #3B4554",
"4  c #156254",
"5  c #1A6356",
"6  c #096252",
"7  c #28685C",
"8  c #346C63",
"9  c #2B7165",
"0  c #387369",
"q  c #337367",
"w  c #1F6E60",
"e  c #434757",
"r  c #545550",
"t  c #78484A",
"y  c #6F6B50",
"u  c #4A5268",
"i  c #4F5571",
"p  c #477C74",
"a  c #41786F",
"s  c #746C70",
"d  c #795967",
"f  c #98302D",
"g  c #B8342D",
"h  c #BA3833",
"j  c #A5342F",
"k  c #C83C38",
"l  c #D83B34",
"z  c #C9342E",
"x  c #E43C34",
"c  c #ED3D35",
"v  c #F03D35",
"b  c #ED382F",
"n  c #B5433D",
"m  c #937833",
"M  c #A47C2E",
"N  c #D8433B",
"B  c #C6463F",
"V  c #E34239",
"C  c #975151",
"Z  c #B94A46",
"A  c #B95A56",
"S  c #B0524E",
"D  c #86734D",
"F  c #B2665C",
"G  c #915863",
"H  c #936569",
"J  c #90776E",
"K  c #A67A75",
"L  c #B76E6A",
"P  c #C94A43",
"I  c #D34942",
"U  c #C5524C",
"Y  c #C55C57",
"T  c #DB564F",
"R  c #EB554F",
"E  c #ED665F",
"W  c #C36965",
"Q  c #CB7370",
"!  c #EB6D67",
"~  c #D0635D",
"^  c #47847A",
"/  c #52867D",
"(  c #7D8A70",
")  c #7B825F",
"_  c #A68630",
"`  c #A88E51",
"'  c #8A8675",
"]  c #97827D",
"[  c #93946E",
"{  c #B18873",
"}  c #88835C",
"|  c #D8847F",
" . c #576389",
".. c #56678C",
"X. c #687499",
"o. c #757A98",
"O. c #6E7089",
"+. c #6776A8",
"@. c #727EA7",
"#. c #6A7CB6",
"$. c #646EA0",
"%. c #61638D",
"&. c #897E93",
"*. c #589088",
"=. c #6A948E",
"-. c #79879A",
";. c #679C94",
":. c #779995",
">. c #708B8D",
",. c #6CA39B",
"<. c #78A29D",
"1. c #6A87A5",
"2. c #7582AB",
"3. c #6B85B9",
"4. c #7988B5",
"5. c #6B97BA",
"6. c #7296BA",
"7. c #78AAA3",
"8. c #7DB3AB",
"9. c #7284C3",
"0. c #7688C4",
"q. c #7A8CC5",
"w. c #749AC5",
"e. c #6EA2C6",
"r. c #76A6CA",
"t. c #76ADD3",
"y. c #79B4DC",
"u. c #7BBAE4",
"i. c #7BBBE5",
"p. c #7FC1EB",
"a. c #958A87",
"s. c #859899",
"d. c #989B98",
"f. c #8B918C",
"g. c #A78985",
"h. c #B98886",
"j. c #BB9895",
"k. c #AE9C98",
"l. c #93A593",
"z. c #B4BB97",
"x. c #ABAE92",
"c. c #989CA9",
"v. c #818EB8",
"b. c #8890AB",
"n. c #86ABA6",
"m. c #97ABA8",
"M. c #87B3AD",
"N. c #8CB6B2",
"B. c #8DBBB5",
"V. c #86BAB3",
"C. c #9CB5B2",
"Z. c #92BEBA",
"A. c #98BAB6",
"S. c #8FB0AF",
"D. c #A6A8AA",
"F. c #BAAAA8",
"G. c #B9BBA7",
"H. c #A6A9B6",
"J. c #ACBDBB",
"K. c #A6B6B5",
"L. c #B7B9B8",
"P. c #AFB2A2",
"I. c #C98985",
"U. c #C79694",
"Y. c #D18581",
"T. c #F39792",
"R. c #CDA19E",
"E. c #E9A39F",
"W. c #C9A6A5",
"Q. c #C8BAB9",
"!. c #D5A9A6",
"~. c #F5A8A5",
"^. c #BDC696",
"/. c #BEC98E",
"(. c #8CC1BB",
"). c #94C3BD",
"_. c #9AC2BC",
"`. c #BDC2A8",
"'. c #A4C1BC",
"]. c #B9C2BC",
"[. c #C3CC98",
"{. c #C9D497",
"}. c #D2DF9D",
"|. c #D5E29E",
" X c #C3CAA7",
".X c #CBD3A9",
"XX c #C7C5B9",
"oX c #D2D2BB",
"OX c #E7D3AF",
"+X c #8494CB",
"@X c #8A9ACE",
"#X c #8494C5",
"$X c #8B9CD0",
"%X c #87AAC3",
"&X c #B7BBC3",
"*X c #80BCE6",
"=X c #9BCAC4",
"-X c #9DCFCA",
";X c #97C7C1",
":X c #9ED2CC",
">X c #9FD8D2",
",X c #A6C9C5",
"<X c #BBC3C3",
"1X c #B6C7C6",
"2X c #A1D4CE",
"3X c #A2D6D1",
"4X c #A5DAD4",
"5X c #A7DED9",
"6X c #A8DFD9",
"7X c #A8DBD5",
"8X c #A9E1DB",
"9X c #A7E0DB",
"0X c #80C1EB",
"qX c #C3C6C6",
"wX c #C5CBCB",
"eX c #CBCCCC",
"rX c #CAC8C5",
"tX c #D5C9C7",
"yX c #C9D1CF",
"uX c #D8D2CB",
"iX c #CDD2D2",
"pX c #D4D5D4",
"aX c #DCDCDC",
"sX c #D8D6D6",
"dX c #CECED0",
"fX c #F6C9C7",
"gX c #E6DBD8",
"hX c #E3E5DD",
"jX c #E0DEE0",
"kX c #E3E3E3",
"lX c #FDF0EF",
/* pixels */
"                                                                                      aXaX                                              ",
"                                                                                    pXK.J.wXaX  sXsXaX                                  ",
"                                                                                  aX<XS.:.s.<XJ.S.C.].pX                                ",
"                                                                                  J.n.<.8 p =.=.0 ;.B.K.aX                              ",
"                                                                                  C.=.1 < < 9 7 < 5 8.m.pX                              ",
"                                                                                  C.Z.0 < 6 4 p q 0 :.<XaX                              ",
"                                                                                  K.,XN.a 5 0 :.=.8 =.K.iX                              ",
"                                                                      sXwX].J.<XeXL.n.n.M.=.>.:.*.4 7 =.<X                              ",
"                                                                    qXJ.;X;X).A.C.[ s :.:XN.:.n.=.^ p >.eX                              ",
"                                                                  <XC.2X8X8X8X8X-X[ D n.).n.( m.1XwX<XwX                                ",
"                                                                iXC.2X8X6X6X6X6X8X=X[ [ f.[ m F.gXuXtXpX                                ",
"                                                                K.-X5X8X6X6X6X6X6X8Xl._ M M m ` { ` ` XX                                ",
"                                                              pXA.4X8X6X6X5X6X6X6X8X_.m M m ` [ l.x.` XX                                ",
"                                                              <X,X5X8X6X5X5X6X6X8X8X2X} [ l.f.).9XA.L.aX                                ",
"                                                            eXC.2X8X6X6X6X6X6X6X8X6X7XN.:X8X4Xn.2X=X].jX                                ",
"                                                        pXwXC.Z.4X8X8X8X6X6X6X6X6X6X6X8X8X8X8Xn.;X:XK.jX                                ",
"                                                    wX1X,X2X4X4XM.N.).3X6X6X6X6X6X6X6X6X6X6X4Xn.:X;X<X                                  ",
"                                                pX<XJ.).V.7.,.;.q 0 / ;X6X8X6X6X5X8X8X8X6X6X3XZ.=XC.pX                                  ",
"                                              iXJ._.(.;.0 p 7 7 2 2 1 ,.3X8X8X:XZ.;X2X8X8X2X;X:XM.K.aX                                  ",
"                                            pXJ.=X4X*.5 ^ =.8 0 7 9 4 7 8.4X6X:XZ.N.n.B.;XM.).:X).A.eX                                  ",
"                                            1X=X5X4X^ < ^ ^ 8 q 0 <.0 2 ,.4X3XZ.B.M.=.>.n.Z.4X6X8X:XK.jX                                ",
"                  aXuX        aXXXuX      pX,X4X8X6X7.q 5 1 4 2 ^ ;X8.;.(.5X3XN.N.B.B.<.<.).=X4X5X4Xm.aX                                ",
"                  uXF.Q.      rX] k.      1X3X8X8X8X4X*.7 7 5 4 7 ,.2X4X6X8X6X4X4X5X6X2XB.n.N.3X8X:Xm.pX                                ",
"                  tX] J XX    Q.d d Q.    '.2XV.7.(.:Xp p 0 / *.4 9 (.6X8X6X6X6X8X6X6X8X6X-X-X4X6X:X_.J.pX                              ",
"                  uX] d G.    XX' ' Q.  wX,XV.0 5 *.;.q / 8 8.B.9 2 ,.4X8X6X8X9X6X6X6X6X6X8X8X8X6X6X3X_.K.pX                            ",
"                  jXP.[ G.  eX`./.^.XX  <X3X,.4 < 8 8 p p / :XM.w < ,.4X8X6X8X8X6X6X6X6X6X6X6X6X6X6X).;XB.K.aX                          ",
"                  aX`./.^.XX].z.}.{.G.eX1X7X8.9 < 5 1 0 7 *.M.^ 6 5 8.4X8X8X8X6X6X6X6X6X6X6X6X6X6X6X=Xn.3XS.<X                          ",
"                  pXG.{.[.XXL.^.|.{.`.qXJ.4X2X7.^ 4 < 6 < 9 q 4 < p =X6X8X6X8X6X6X6X6X6X6X6X6X6X6X8X2X:.4X2XK.aX                        ",
"                  pXG.{.{.XX].^.|.{.`.qX'.4X8X8XB.8 7 1 9 w 4 4 q 8.4X8X6X6X6X6X6X6X6X6X6X6X6X6X6X6X4X:.=X8XA.iX                        ",
"                  aXG.[.}..XXX[.[.x.G.qX'.4X8X8X:X,.;.p 7.8.;.,.V.3X8X6X6X6X6X6X6X6X6X6X6X6X6X6X6X6X8X7.Z.8X).<X                        ",
"                    G.z.z.z.G.^.' r d.iX,X4X8X6X5X3X:XB.3X2X;X4X8X8X8X6X6X6X6X6X6X6X6X6X6X6X6X6X6X6X8XM.M.3X;XD.kX                      ",
"                    XX[ y s P.`.y # d.sX1X4X8X6X6X8X8X8X8X;XN.3X8X6X6X6X6X6X8X6X6X6X6X6X6X6X6X6X6X6X6X2X<.;XB.D.kX                      ",
"                    sXl.# - d. X[ ) G.aX,X4X8X6X5X5X5X6X,Xa.f.2X8X6X6X6X3X2X4X8X6X6X6X6X6X6X6X6X6X6X8X-X:.).n.qX                        ",
"                    kX`.) y P.`.^.{.oXaX1X4X9X6X6X6X5X5Xd.L F A.5X8X6X8X:Xn.:X8X6X6X6X6X6X8X6X6X6X6X8XB.N.=Xs.qXaX                      ",
"                      rX^./. XXX X{.oXkX1X4X9X5X5X6X8X3Xg.E.~ a.2X8X6X_.m.H d.2X9X8X8X8X3X4X6X6X6X6X6X:X4X3X_.'.qX                      ",
"                      aX X{..XXXXX/..XjXiX2X4X5X6X6X6X4Xf.!.E N K K._.F Z l I L g.d.m.B.B.2X5X8X6X6X6X6X8X8X8X4XA.pX                    ",
"                        rX[.{.oXrX[..XhXpXs._.5X8X6X6X8XA.g.T c V Y H P x c c x N B J =X2X5X9X8X6X4X4X5X6X6X6X8X-X<X                    ",
"                        aXXX[. XXXG.z.uXF.y Z.5X8X6X6X6X9Xa.B c v x k x c v c E T.T K 4X8X8X8X8X8X-X).6X8X6X6X6X:XJ.kX                  ",
"                          uX`.z.{ S C C t t m.6X8X6X6X8X_.F l g l c c c v b E fXlXI.d.5X8X6X6X6X-X7.B.3X:X4X3X8XZ.<X                    ",
"                          aXj.{ F l h j g n ] _.5X8X8X-XK B f & h c v c R ! fXlXgXg.'.5X8X6X4XZ.:.<.3XN.N.).:X:Xm.pX                    ",
"                          pXL n N x x x N U.Q.m.N.4X4Xg.P f % $ * l v v | fXlXfX| d.7X8X6X8X).n.;X3XC.F H N.).m.qX                      ",
"                          tXW l c c v l Q rXK.L.J s.a.U f % O . + * h x R ! Q C & :.:X8X8X8X5X:X;Xf.C V h s C.wXkX                      ",
"                          XXF z l x I I.Q.L.qXI.A H Z j % X . . . X % * * * * % % : H a.d.d.d.K F B l v z g.iX                          ",
"                          W.Y W { I.j.F.K.eX!.A k k S o.1...u 3 3 e * f f j g g g z h n P I I N x c E ~.~ h.aX                          ",
"                          U.U R.L.D.D.<XpX!.A j z Z s r.u.y.t.e.5.1.G S A Y W W Q I.h.S x c c c v R fXlXY.g.kX                          ",
"                          W.U Q Q.sXsXQ.Y.Y H Z n d 1.y.p.0X0Xy.5.X.O.O.Q.XXtXuXsX    j.N v v c R fXlXfXA F.                            ",
"                          sXh.Z F L Q Y Z &.v.H s 1.t.i.i.r.6.1. .e @ , d.              L l c E E.fXE.Y K sX                            ",
"                            tXa.s &.f.O.o.t.*Xr.1.t.y.e.-.' ` y # O O 3 O.H.            tX{ Z P Y U S h.tX                              ",
"                              H.6.r.5.5.t.i.y.e.e.e.-.J y ; > m ; u X.4.#Xv.&X              Q.W.U.U.Q.sX                                ",
"                              &Xr.i.u.i.u.e.5.5.6.>.D ; + X = _ ' v.@X$X$X+Xb.eX                                                        ",
"                              <X%Xi.0Xp.u.5.6.2.i r m = o > D J b.@X$X$X@X$X@.H.                                                        ",
"                              wX%Xu.p.i.r.4.X.e O + y m D ' b.2.4.@X$X@X@X@X#.H.                                                        ",
"                              wX%Xy.y.w.1.u @ O @ i -.s.b.o.4.#X2.#X$X@X@X+X+.H.                                                        ",
"                              wXS.e.6.4.@.@ O u @.#X@X@X@X2.X.4.4.v.@X$X+X0.$.&X                                                        ",
"                              L.-.@.i u 2.X.@.#X@X@X@X@X$X+XX.@.4.4.@X+X0.#.s.dX                                                        ",
"                              H.o.i O , @.@X@X@X@X@X@X@X@X$X4.4.@.4.q.9.#.X.L.                                                          ",
"                            kXD.e O , X.@X$X$X$X@X@X@X@X@X@X@X2.+.3.9.9. .d.pX                                                          ",
"                              L.r e 2.@X$X$X@X@X@X@X$X@X@X+Xq.0.9.#.+.#.#.o.eX                                                          ",
"                              rX-.+.@X@X@X@X@X@X@X+X+X+Xq.0.9.9.+. ...#.+.c.sX                                                          ",
"                              kXc.+.9.0.0.q.0.0.0.0.9.9.9.3.+.X.s ..$.O.d Q.                                                            ",
"                                qX-.$.#.3.9.9.#.#.#.+.+.X.o.c.&XwXc.G k Z Q.                                                            ",
"                                  eXH.b.X.#.9.#. .u s D.&XpXaX    aXL x U tX                                                            ",
"                                    kXpXc.#.#.#.+...D.              W.U Q uX                                                            ",
"                                        L.G C t &.H.sX                tXsX                                                              ",
"                                        Q.I x A Q.                                                                                      ",
"                                        rXP k U.                                                                                        ",
"                                        kXU.R.sX                                                                                        ",
"                                          kXkX                                                                                          "
};
